<mxfile host="app.diagrams.net" agent="Mozilla/5.0 (X11; Linux x86_64) AppleWebKit/537.36 (KHTML, like Gecko) Chrome/133.0.0.0 Safari/537.36" version="26.0.11">
  <diagram name="Page-1" id="_zdt3LbKk6MQP1pUyuti">
    <mxGraphModel grid="1" page="1" gridSize="10" guides="1" tooltips="1" connect="1" arrows="1" fold="1" pageScale="1" pageWidth="850" pageHeight="1100" math="0" shadow="0">
      <root>
        <mxCell id="0" />
        <mxCell id="1" parent="0" />
        <mxCell id="nZO7UbSJ-AooSzm_N_nm-1" value="Actor" style="shape=umlActor;verticalLabelPosition=bottom;verticalAlign=top;html=1;outlineConnect=0;" vertex="1" parent="1">
          <mxGeometry x="-120" y="290" width="30" height="60" as="geometry" />
        </mxCell>
        <mxCell id="nZO7UbSJ-AooSzm_N_nm-2" value="Admin" style="shape=umlActor;verticalLabelPosition=bottom;verticalAlign=top;html=1;outlineConnect=0;" vertex="1" parent="1">
          <mxGeometry x="890" y="290" width="30" height="60" as="geometry" />
        </mxCell>
        <mxCell id="nZO7UbSJ-AooSzm_N_nm-3" value="System" style="shape=umlActor;verticalLabelPosition=bottom;verticalAlign=top;html=1;outlineConnect=0;" vertex="1" parent="1">
          <mxGeometry x="410" width="30" height="60" as="geometry" />
        </mxCell>
        <mxCell id="nZO7UbSJ-AooSzm_N_nm-4" value="user sign out" style="ellipse;whiteSpace=wrap;html=1;" vertex="1" parent="1">
          <mxGeometry x="-40" y="390" width="120" height="80" as="geometry" />
        </mxCell>
        <mxCell id="nZO7UbSJ-AooSzm_N_nm-5" value="contact emergency contact" style="ellipse;whiteSpace=wrap;html=1;" vertex="1" parent="1">
          <mxGeometry x="-40" y="80" width="120" height="80" as="geometry" />
        </mxCell>
        <mxCell id="nZO7UbSJ-AooSzm_N_nm-7" value="edit preferences" style="ellipse;whiteSpace=wrap;html=1;" vertex="1" parent="1">
          <mxGeometry x="110" y="390" width="120" height="80" as="geometry" />
        </mxCell>
        <mxCell id="nZO7UbSJ-AooSzm_N_nm-8" value="user login" style="ellipse;whiteSpace=wrap;html=1;" vertex="1" parent="1">
          <mxGeometry x="110" y="280" width="120" height="80" as="geometry" />
        </mxCell>
        <mxCell id="nZO7UbSJ-AooSzm_N_nm-9" value="login using phone number and password" style="ellipse;whiteSpace=wrap;html=1;" vertex="1" parent="1">
          <mxGeometry x="185" y="170" width="120" height="80" as="geometry" />
        </mxCell>
        <mxCell id="nZO7UbSJ-AooSzm_N_nm-10" value="login using email and password" style="ellipse;whiteSpace=wrap;html=1;" vertex="1" parent="1">
          <mxGeometry x="50" y="170" width="120" height="80" as="geometry" />
        </mxCell>
        <mxCell id="nZO7UbSJ-AooSzm_N_nm-11" value="edit settings" style="ellipse;whiteSpace=wrap;html=1;" vertex="1" parent="1">
          <mxGeometry x="527.5" y="390" width="120" height="80" as="geometry" />
        </mxCell>
        <mxCell id="nZO7UbSJ-AooSzm_N_nm-12" value="create driver profile" style="ellipse;whiteSpace=wrap;html=1;" vertex="1" parent="1">
          <mxGeometry x="697.5" y="390" width="120" height="80" as="geometry" />
        </mxCell>
        <mxCell id="nZO7UbSJ-AooSzm_N_nm-13" value="admin sign out" style="ellipse;whiteSpace=wrap;html=1;" vertex="1" parent="1">
          <mxGeometry x="845" y="500" width="120" height="80" as="geometry" />
        </mxCell>
        <mxCell id="nZO7UbSJ-AooSzm_N_nm-14" value="edit driver profile" style="ellipse;whiteSpace=wrap;html=1;" vertex="1" parent="1">
          <mxGeometry x="612.5" y="500" width="120" height="80" as="geometry" />
        </mxCell>
        <mxCell id="nZO7UbSJ-AooSzm_N_nm-17" value="receive sensor data" style="ellipse;whiteSpace=wrap;html=1;" vertex="1" parent="1">
          <mxGeometry x="365" y="-210" width="120" height="80" as="geometry" />
        </mxCell>
        <mxCell id="nZO7UbSJ-AooSzm_N_nm-18" value="connect to network" style="ellipse;whiteSpace=wrap;html=1;" vertex="1" parent="1">
          <mxGeometry x="500" y="-130" width="120" height="80" as="geometry" />
        </mxCell>
        <mxCell id="nZO7UbSJ-AooSzm_N_nm-19" value="alert admin" style="ellipse;whiteSpace=wrap;html=1;" vertex="1" parent="1">
          <mxGeometry x="500" y="-30" width="120" height="80" as="geometry" />
        </mxCell>
        <mxCell id="nZO7UbSJ-AooSzm_N_nm-20" value="alert driver" style="ellipse;whiteSpace=wrap;html=1;" vertex="1" parent="1">
          <mxGeometry x="500" y="80" width="120" height="80" as="geometry" />
        </mxCell>
        <mxCell id="nZO7UbSJ-AooSzm_N_nm-22" value="" style="endArrow=none;html=1;rounded=0;entryX=0.5;entryY=1;entryDx=0;entryDy=0;" edge="1" parent="1" target="nZO7UbSJ-AooSzm_N_nm-17">
          <mxGeometry width="50" height="50" relative="1" as="geometry">
            <mxPoint x="425" y="-10" as="sourcePoint" />
            <mxPoint x="460" y="150" as="targetPoint" />
          </mxGeometry>
        </mxCell>
        <mxCell id="nZO7UbSJ-AooSzm_N_nm-23" value="" style="endArrow=none;html=1;rounded=0;entryX=0;entryY=0.419;entryDx=0;entryDy=0;entryPerimeter=0;" edge="1" parent="1" target="nZO7UbSJ-AooSzm_N_nm-18">
          <mxGeometry width="50" height="50" relative="1" as="geometry">
            <mxPoint x="10" y="-100" as="sourcePoint" />
            <mxPoint x="460" y="150" as="targetPoint" />
          </mxGeometry>
        </mxCell>
        <mxCell id="nZO7UbSJ-AooSzm_N_nm-24" value="" style="endArrow=none;html=1;rounded=0;" edge="1" parent="1">
          <mxGeometry width="50" height="50" relative="1" as="geometry">
            <mxPoint x="15" y="80" as="sourcePoint" />
            <mxPoint x="15" y="-100" as="targetPoint" />
          </mxGeometry>
        </mxCell>
        <mxCell id="nZO7UbSJ-AooSzm_N_nm-25" value="" style="endArrow=none;html=1;rounded=0;" edge="1" parent="1">
          <mxGeometry width="50" height="50" relative="1" as="geometry">
            <mxPoint x="350" y="30" as="sourcePoint" />
            <mxPoint x="400" y="30" as="targetPoint" />
          </mxGeometry>
        </mxCell>
        <mxCell id="nZO7UbSJ-AooSzm_N_nm-26" value="" style="endArrow=none;html=1;rounded=0;" edge="1" parent="1">
          <mxGeometry width="50" height="50" relative="1" as="geometry">
            <mxPoint x="450" y="35" as="sourcePoint" />
            <mxPoint x="480" y="35" as="targetPoint" />
          </mxGeometry>
        </mxCell>
        <mxCell id="nZO7UbSJ-AooSzm_N_nm-27" value="" style="endArrow=none;html=1;rounded=0;" edge="1" parent="1">
          <mxGeometry width="50" height="50" relative="1" as="geometry">
            <mxPoint x="480" y="120" as="sourcePoint" />
            <mxPoint x="480" as="targetPoint" />
          </mxGeometry>
        </mxCell>
        <mxCell id="nZO7UbSJ-AooSzm_N_nm-28" value="" style="endArrow=none;html=1;rounded=0;entryX=0.015;entryY=0.381;entryDx=0;entryDy=0;entryPerimeter=0;" edge="1" parent="1" target="nZO7UbSJ-AooSzm_N_nm-19">
          <mxGeometry width="50" height="50" relative="1" as="geometry">
            <mxPoint x="480" as="sourcePoint" />
            <mxPoint x="290" y="50" as="targetPoint" />
          </mxGeometry>
        </mxCell>
        <mxCell id="nZO7UbSJ-AooSzm_N_nm-29" value="" style="endArrow=none;html=1;rounded=0;entryX=0.015;entryY=0.381;entryDx=0;entryDy=0;entryPerimeter=0;" edge="1" parent="1">
          <mxGeometry width="50" height="50" relative="1" as="geometry">
            <mxPoint x="478" y="119.85" as="sourcePoint" />
            <mxPoint x="500" y="119.85" as="targetPoint" />
          </mxGeometry>
        </mxCell>
        <mxCell id="nZO7UbSJ-AooSzm_N_nm-31" value="authenticate user" style="ellipse;whiteSpace=wrap;html=1;" vertex="1" parent="1">
          <mxGeometry x="365" y="280" width="120" height="80" as="geometry" />
        </mxCell>
        <mxCell id="nZO7UbSJ-AooSzm_N_nm-32" value="view driver status" style="ellipse;whiteSpace=wrap;html=1;" vertex="1" parent="1">
          <mxGeometry x="365" y="390" width="120" height="80" as="geometry" />
        </mxCell>
        <mxCell id="nZO7UbSJ-AooSzm_N_nm-33" value="view event log" style="ellipse;whiteSpace=wrap;html=1;" vertex="1" parent="1">
          <mxGeometry x="365" y="490" width="120" height="80" as="geometry" />
        </mxCell>
        <mxCell id="nZO7UbSJ-AooSzm_N_nm-34" value="view event clip" style="ellipse;whiteSpace=wrap;html=1;" vertex="1" parent="1">
          <mxGeometry x="365" y="590" width="120" height="80" as="geometry" />
        </mxCell>
        <mxCell id="YJYU2VBXTh1OiOq9aR2o-1" value="" style="endArrow=none;html=1;rounded=0;exitX=0.5;exitY=0;exitDx=0;exitDy=0;" edge="1" parent="1" source="nZO7UbSJ-AooSzm_N_nm-31">
          <mxGeometry width="50" height="50" relative="1" as="geometry">
            <mxPoint x="370" y="280" as="sourcePoint" />
            <mxPoint x="425" y="90" as="targetPoint" />
          </mxGeometry>
        </mxCell>
        <mxCell id="YJYU2VBXTh1OiOq9aR2o-5" value="" style="endArrow=none;dashed=1;html=1;rounded=0;" edge="1" parent="1" source="YJYU2VBXTh1OiOq9aR2o-38">
          <mxGeometry width="50" height="50" relative="1" as="geometry">
            <mxPoint x="110" y="270" as="sourcePoint" />
            <mxPoint x="110" y="250" as="targetPoint" />
          </mxGeometry>
        </mxCell>
        <mxCell id="YJYU2VBXTh1OiOq9aR2o-6" value="" style="endArrow=none;dashed=1;html=1;rounded=0;" edge="1" parent="1" source="YJYU2VBXTh1OiOq9aR2o-39">
          <mxGeometry width="50" height="50" relative="1" as="geometry">
            <mxPoint x="244.88" y="270" as="sourcePoint" />
            <mxPoint x="244.88" y="250" as="targetPoint" />
          </mxGeometry>
        </mxCell>
        <mxCell id="YJYU2VBXTh1OiOq9aR2o-7" value="" style="endArrow=none;dashed=1;html=1;rounded=0;" edge="1" parent="1">
          <mxGeometry width="50" height="50" relative="1" as="geometry">
            <mxPoint x="110" y="270" as="sourcePoint" />
            <mxPoint x="244.88" y="270" as="targetPoint" />
          </mxGeometry>
        </mxCell>
        <mxCell id="YJYU2VBXTh1OiOq9aR2o-8" value="" style="endArrow=none;dashed=1;html=1;rounded=0;" edge="1" parent="1">
          <mxGeometry width="50" height="50" relative="1" as="geometry">
            <mxPoint x="170" y="280" as="sourcePoint" />
            <mxPoint x="170" y="270" as="targetPoint" />
          </mxGeometry>
        </mxCell>
        <mxCell id="YJYU2VBXTh1OiOq9aR2o-9" value="&lt;font style=&quot;font-size: 8px;&quot;&gt;extends&lt;/font&gt;" style="text;html=1;align=center;verticalAlign=middle;whiteSpace=wrap;rounded=0;" vertex="1" parent="1">
          <mxGeometry x="110" y="250" width="60" height="30" as="geometry" />
        </mxCell>
        <mxCell id="YJYU2VBXTh1OiOq9aR2o-10" value="&lt;font style=&quot;font-size: 8px;&quot;&gt;extends&lt;/font&gt;" style="text;html=1;align=center;verticalAlign=middle;whiteSpace=wrap;rounded=0;" vertex="1" parent="1">
          <mxGeometry x="170" y="250" width="60" height="30" as="geometry" />
        </mxCell>
        <mxCell id="YJYU2VBXTh1OiOq9aR2o-11" value="admin login" style="ellipse;whiteSpace=wrap;html=1;" vertex="1" parent="1">
          <mxGeometry x="612.5" y="280" width="120" height="80" as="geometry" />
        </mxCell>
        <mxCell id="YJYU2VBXTh1OiOq9aR2o-12" value="login using phone number and password" style="ellipse;whiteSpace=wrap;html=1;" vertex="1" parent="1">
          <mxGeometry x="687.5" y="170" width="120" height="80" as="geometry" />
        </mxCell>
        <mxCell id="YJYU2VBXTh1OiOq9aR2o-13" value="login using email and password" style="ellipse;whiteSpace=wrap;html=1;" vertex="1" parent="1">
          <mxGeometry x="552.5" y="170" width="120" height="80" as="geometry" />
        </mxCell>
        <mxCell id="YJYU2VBXTh1OiOq9aR2o-14" value="" style="endArrow=none;dashed=1;html=1;rounded=0;" edge="1" parent="1" source="YJYU2VBXTh1OiOq9aR2o-31">
          <mxGeometry width="50" height="50" relative="1" as="geometry">
            <mxPoint x="612.5" y="270" as="sourcePoint" />
            <mxPoint x="612.5" y="250" as="targetPoint" />
          </mxGeometry>
        </mxCell>
        <mxCell id="YJYU2VBXTh1OiOq9aR2o-15" value="" style="endArrow=none;dashed=1;html=1;rounded=0;" edge="1" parent="1" source="YJYU2VBXTh1OiOq9aR2o-36">
          <mxGeometry width="50" height="50" relative="1" as="geometry">
            <mxPoint x="747.38" y="270" as="sourcePoint" />
            <mxPoint x="747.38" y="250" as="targetPoint" />
          </mxGeometry>
        </mxCell>
        <mxCell id="YJYU2VBXTh1OiOq9aR2o-16" value="" style="endArrow=none;dashed=1;html=1;rounded=0;" edge="1" parent="1">
          <mxGeometry width="50" height="50" relative="1" as="geometry">
            <mxPoint x="612.5" y="270" as="sourcePoint" />
            <mxPoint x="747.38" y="270" as="targetPoint" />
          </mxGeometry>
        </mxCell>
        <mxCell id="YJYU2VBXTh1OiOq9aR2o-17" value="" style="endArrow=none;dashed=1;html=1;rounded=0;" edge="1" parent="1">
          <mxGeometry width="50" height="50" relative="1" as="geometry">
            <mxPoint x="672.5" y="280" as="sourcePoint" />
            <mxPoint x="672.5" y="270" as="targetPoint" />
          </mxGeometry>
        </mxCell>
        <mxCell id="YJYU2VBXTh1OiOq9aR2o-18" value="&lt;font style=&quot;font-size: 8px;&quot;&gt;extends&lt;/font&gt;" style="text;html=1;align=center;verticalAlign=middle;whiteSpace=wrap;rounded=0;" vertex="1" parent="1">
          <mxGeometry x="612.5" y="250" width="60" height="30" as="geometry" />
        </mxCell>
        <mxCell id="YJYU2VBXTh1OiOq9aR2o-19" value="&lt;font style=&quot;font-size: 8px;&quot;&gt;extends&lt;/font&gt;" style="text;html=1;align=center;verticalAlign=middle;whiteSpace=wrap;rounded=0;" vertex="1" parent="1">
          <mxGeometry x="672.5" y="250" width="60" height="30" as="geometry" />
        </mxCell>
        <mxCell id="YJYU2VBXTh1OiOq9aR2o-20" value="" style="endArrow=none;html=1;rounded=0;exitX=1;exitY=0.5;exitDx=0;exitDy=0;" edge="1" parent="1" source="YJYU2VBXTh1OiOq9aR2o-11">
          <mxGeometry width="50" height="50" relative="1" as="geometry">
            <mxPoint x="820" y="370" as="sourcePoint" />
            <mxPoint x="870" y="320" as="targetPoint" />
          </mxGeometry>
        </mxCell>
        <mxCell id="YJYU2VBXTh1OiOq9aR2o-21" value="" style="endArrow=none;html=1;rounded=0;" edge="1" parent="1">
          <mxGeometry width="50" height="50" relative="1" as="geometry">
            <mxPoint x="907" y="380" as="sourcePoint" />
            <mxPoint x="907" y="498.82" as="targetPoint" />
          </mxGeometry>
        </mxCell>
        <mxCell id="YJYU2VBXTh1OiOq9aR2o-22" value="" style="endArrow=none;html=1;rounded=0;exitX=0.5;exitY=0;exitDx=0;exitDy=0;" edge="1" parent="1" source="nZO7UbSJ-AooSzm_N_nm-4">
          <mxGeometry width="50" height="50" relative="1" as="geometry">
            <mxPoint x="19.41" y="340" as="sourcePoint" />
            <mxPoint x="19.41" y="160" as="targetPoint" />
          </mxGeometry>
        </mxCell>
        <mxCell id="YJYU2VBXTh1OiOq9aR2o-23" value="" style="endArrow=none;html=1;rounded=0;exitX=1;exitY=0.5;exitDx=0;exitDy=0;" edge="1" parent="1">
          <mxGeometry width="50" height="50" relative="1" as="geometry">
            <mxPoint x="-70" y="320" as="sourcePoint" />
            <mxPoint x="20" y="320" as="targetPoint" />
          </mxGeometry>
        </mxCell>
        <mxCell id="YJYU2VBXTh1OiOq9aR2o-24" value="" style="endArrow=none;html=1;rounded=0;" edge="1" parent="1">
          <mxGeometry width="50" height="50" relative="1" as="geometry">
            <mxPoint x="169" y="360" as="sourcePoint" />
            <mxPoint x="168.82000000000005" y="390" as="targetPoint" />
          </mxGeometry>
        </mxCell>
        <mxCell id="YJYU2VBXTh1OiOq9aR2o-25" value="" style="endArrow=none;html=1;rounded=0;entryX=0;entryY=0.5;entryDx=0;entryDy=0;" edge="1" parent="1" target="nZO7UbSJ-AooSzm_N_nm-8">
          <mxGeometry width="50" height="50" relative="1" as="geometry">
            <mxPoint x="20" y="320" as="sourcePoint" />
            <mxPoint x="130" y="319.58" as="targetPoint" />
          </mxGeometry>
        </mxCell>
        <mxCell id="YJYU2VBXTh1OiOq9aR2o-26" value="" style="endArrow=none;dashed=1;html=1;rounded=0;" edge="1" parent="1" source="YJYU2VBXTh1OiOq9aR2o-55">
          <mxGeometry width="50" height="50" relative="1" as="geometry">
            <mxPoint x="230" y="320" as="sourcePoint" />
            <mxPoint x="364.88" y="320" as="targetPoint" />
          </mxGeometry>
        </mxCell>
        <mxCell id="YJYU2VBXTh1OiOq9aR2o-27" value="&lt;font style=&quot;font-size: 8px;&quot;&gt;include&lt;/font&gt;" style="text;html=1;align=center;verticalAlign=middle;whiteSpace=wrap;rounded=0;" vertex="1" parent="1">
          <mxGeometry x="290" y="300" width="60" height="30" as="geometry" />
        </mxCell>
        <mxCell id="YJYU2VBXTh1OiOq9aR2o-28" value="" style="endArrow=none;dashed=1;html=1;rounded=0;" edge="1" parent="1" source="YJYU2VBXTh1OiOq9aR2o-57">
          <mxGeometry width="50" height="50" relative="1" as="geometry">
            <mxPoint x="485.12" y="320" as="sourcePoint" />
            <mxPoint x="610" y="320" as="targetPoint" />
          </mxGeometry>
        </mxCell>
        <mxCell id="YJYU2VBXTh1OiOq9aR2o-29" value="&lt;font style=&quot;font-size: 8px;&quot;&gt;include&lt;/font&gt;" style="text;html=1;align=center;verticalAlign=middle;whiteSpace=wrap;rounded=0;" vertex="1" parent="1">
          <mxGeometry x="550" y="290" width="60" height="30" as="geometry" />
        </mxCell>
        <mxCell id="YJYU2VBXTh1OiOq9aR2o-35" value="" style="endArrow=none;dashed=1;html=1;rounded=0;" edge="1" parent="1" target="YJYU2VBXTh1OiOq9aR2o-31">
          <mxGeometry width="50" height="50" relative="1" as="geometry">
            <mxPoint x="612.5" y="270" as="sourcePoint" />
            <mxPoint x="612.5" y="250" as="targetPoint" />
          </mxGeometry>
        </mxCell>
        <mxCell id="YJYU2VBXTh1OiOq9aR2o-31" value="" style="triangle;whiteSpace=wrap;html=1;rotation=-90;" vertex="1" parent="1">
          <mxGeometry x="607.5" y="250" width="10" height="10" as="geometry" />
        </mxCell>
        <mxCell id="YJYU2VBXTh1OiOq9aR2o-37" value="" style="endArrow=none;dashed=1;html=1;rounded=0;" edge="1" parent="1" target="YJYU2VBXTh1OiOq9aR2o-36">
          <mxGeometry width="50" height="50" relative="1" as="geometry">
            <mxPoint x="747.38" y="270" as="sourcePoint" />
            <mxPoint x="747.38" y="250" as="targetPoint" />
          </mxGeometry>
        </mxCell>
        <mxCell id="YJYU2VBXTh1OiOq9aR2o-36" value="" style="triangle;whiteSpace=wrap;html=1;rotation=-90;" vertex="1" parent="1">
          <mxGeometry x="742.5" y="250" width="10" height="10" as="geometry" />
        </mxCell>
        <mxCell id="YJYU2VBXTh1OiOq9aR2o-40" value="" style="endArrow=none;dashed=1;html=1;rounded=0;" edge="1" parent="1" target="YJYU2VBXTh1OiOq9aR2o-38">
          <mxGeometry width="50" height="50" relative="1" as="geometry">
            <mxPoint x="110" y="270" as="sourcePoint" />
            <mxPoint x="110" y="250" as="targetPoint" />
          </mxGeometry>
        </mxCell>
        <mxCell id="YJYU2VBXTh1OiOq9aR2o-38" value="" style="triangle;whiteSpace=wrap;html=1;rotation=-90;" vertex="1" parent="1">
          <mxGeometry x="105" y="250" width="10" height="10" as="geometry" />
        </mxCell>
        <mxCell id="YJYU2VBXTh1OiOq9aR2o-41" value="" style="endArrow=none;dashed=1;html=1;rounded=0;" edge="1" parent="1" target="YJYU2VBXTh1OiOq9aR2o-39">
          <mxGeometry width="50" height="50" relative="1" as="geometry">
            <mxPoint x="244.88" y="270" as="sourcePoint" />
            <mxPoint x="244.88" y="250" as="targetPoint" />
          </mxGeometry>
        </mxCell>
        <mxCell id="YJYU2VBXTh1OiOq9aR2o-39" value="" style="triangle;whiteSpace=wrap;html=1;rotation=-90;" vertex="1" parent="1">
          <mxGeometry x="240" y="250" width="10" height="10" as="geometry" />
        </mxCell>
        <mxCell id="YJYU2VBXTh1OiOq9aR2o-42" value="" style="endArrow=none;html=1;rounded=0;exitX=0.5;exitY=0;exitDx=0;exitDy=0;" edge="1" parent="1" source="nZO7UbSJ-AooSzm_N_nm-14">
          <mxGeometry width="50" height="50" relative="1" as="geometry">
            <mxPoint x="672.5" y="490" as="sourcePoint" />
            <mxPoint x="672.5" y="360" as="targetPoint" />
          </mxGeometry>
        </mxCell>
        <mxCell id="YJYU2VBXTh1OiOq9aR2o-46" value="" style="endArrow=none;html=1;rounded=0;exitX=1;exitY=0.5;exitDx=0;exitDy=0;" edge="1" parent="1" source="nZO7UbSJ-AooSzm_N_nm-11">
          <mxGeometry width="50" height="50" relative="1" as="geometry">
            <mxPoint x="647.5" y="480" as="sourcePoint" />
            <mxPoint x="697.5" y="430" as="targetPoint" />
          </mxGeometry>
        </mxCell>
        <mxCell id="YJYU2VBXTh1OiOq9aR2o-47" value="" style="endArrow=none;html=1;rounded=0;" edge="1" parent="1">
          <mxGeometry width="50" height="50" relative="1" as="geometry">
            <mxPoint x="510" y="480.83" as="sourcePoint" />
            <mxPoint x="672.5" y="480" as="targetPoint" />
          </mxGeometry>
        </mxCell>
        <mxCell id="YJYU2VBXTh1OiOq9aR2o-48" value="" style="endArrow=none;html=1;rounded=0;" edge="1" parent="1">
          <mxGeometry width="50" height="50" relative="1" as="geometry">
            <mxPoint x="510" y="640" as="sourcePoint" />
            <mxPoint x="510" y="430" as="targetPoint" />
          </mxGeometry>
        </mxCell>
        <mxCell id="YJYU2VBXTh1OiOq9aR2o-51" value="" style="endArrow=none;html=1;rounded=0;exitX=0.972;exitY=0.629;exitDx=0;exitDy=0;exitPerimeter=0;" edge="1" parent="1" source="nZO7UbSJ-AooSzm_N_nm-34">
          <mxGeometry width="50" height="50" relative="1" as="geometry">
            <mxPoint x="460" y="640" as="sourcePoint" />
            <mxPoint x="509.5" y="640" as="targetPoint" />
          </mxGeometry>
        </mxCell>
        <mxCell id="YJYU2VBXTh1OiOq9aR2o-52" value="" style="endArrow=none;html=1;rounded=0;exitX=0.972;exitY=0.629;exitDx=0;exitDy=0;exitPerimeter=0;" edge="1" parent="1">
          <mxGeometry width="50" height="50" relative="1" as="geometry">
            <mxPoint x="485" y="529.86" as="sourcePoint" />
            <mxPoint x="510" y="530" as="targetPoint" />
          </mxGeometry>
        </mxCell>
        <mxCell id="YJYU2VBXTh1OiOq9aR2o-53" value="" style="endArrow=none;html=1;rounded=0;exitX=0.972;exitY=0.629;exitDx=0;exitDy=0;exitPerimeter=0;" edge="1" parent="1">
          <mxGeometry width="50" height="50" relative="1" as="geometry">
            <mxPoint x="485" y="429.76" as="sourcePoint" />
            <mxPoint x="510" y="430" as="targetPoint" />
          </mxGeometry>
        </mxCell>
        <mxCell id="YJYU2VBXTh1OiOq9aR2o-56" value="" style="endArrow=none;dashed=1;html=1;rounded=0;" edge="1" parent="1" target="YJYU2VBXTh1OiOq9aR2o-55">
          <mxGeometry width="50" height="50" relative="1" as="geometry">
            <mxPoint x="230" y="320" as="sourcePoint" />
            <mxPoint x="364.88" y="320" as="targetPoint" />
          </mxGeometry>
        </mxCell>
        <mxCell id="YJYU2VBXTh1OiOq9aR2o-55" value="" style="triangle;whiteSpace=wrap;html=1;rotation=0;" vertex="1" parent="1">
          <mxGeometry x="355" y="315" width="10" height="10" as="geometry" />
        </mxCell>
        <mxCell id="YJYU2VBXTh1OiOq9aR2o-58" value="" style="endArrow=none;dashed=1;html=1;rounded=0;" edge="1" parent="1" target="YJYU2VBXTh1OiOq9aR2o-57">
          <mxGeometry width="50" height="50" relative="1" as="geometry">
            <mxPoint x="485.12" y="320" as="sourcePoint" />
            <mxPoint x="610" y="320" as="targetPoint" />
          </mxGeometry>
        </mxCell>
        <mxCell id="YJYU2VBXTh1OiOq9aR2o-57" value="" style="triangle;whiteSpace=wrap;html=1;rotation=-180;" vertex="1" parent="1">
          <mxGeometry x="485" y="315" width="10" height="10" as="geometry" />
        </mxCell>
        <mxCell id="YJYU2VBXTh1OiOq9aR2o-59" value="send data" style="ellipse;whiteSpace=wrap;html=1;" vertex="1" parent="1">
          <mxGeometry x="207" y="-40" width="120" height="80" as="geometry" />
        </mxCell>
        <mxCell id="YJYU2VBXTh1OiOq9aR2o-60" value="receive/read data" style="ellipse;whiteSpace=wrap;html=1;" vertex="1" parent="1">
          <mxGeometry x="207" y="70" width="120" height="80" as="geometry" />
        </mxCell>
        <mxCell id="YJYU2VBXTh1OiOq9aR2o-61" value="" style="endArrow=none;html=1;rounded=0;" edge="1" parent="1">
          <mxGeometry width="50" height="50" relative="1" as="geometry">
            <mxPoint x="350" y="110" as="sourcePoint" />
            <mxPoint x="350" y="-10" as="targetPoint" />
          </mxGeometry>
        </mxCell>
        <mxCell id="YJYU2VBXTh1OiOq9aR2o-63" value="" style="endArrow=none;html=1;rounded=0;" edge="1" parent="1">
          <mxGeometry width="50" height="50" relative="1" as="geometry">
            <mxPoint x="350" y="110" as="sourcePoint" />
            <mxPoint x="330" y="110" as="targetPoint" />
          </mxGeometry>
        </mxCell>
        <mxCell id="YJYU2VBXTh1OiOq9aR2o-64" value="" style="endArrow=none;html=1;rounded=0;entryX=0.974;entryY=0.37;entryDx=0;entryDy=0;entryPerimeter=0;" edge="1" parent="1" target="YJYU2VBXTh1OiOq9aR2o-59">
          <mxGeometry width="50" height="50" relative="1" as="geometry">
            <mxPoint x="350" y="-10" as="sourcePoint" />
            <mxPoint x="340" y="120" as="targetPoint" />
          </mxGeometry>
        </mxCell>
      </root>
    </mxGraphModel>
  </diagram>
</mxfile>
